<?xml version="1.0" encoding="UTF-8" standalone="no"?>
<!DOCTYPE svg PUBLIC "-//W3C//DTD SVG 1.1//EN" "http://www.w3.org/Graphics/SVG/1.1/DTD/svg11.dtd">
<svg width="2522px" height="2597px" version="1.1" xmlns="http://www.w3.org/2000/svg" xmlns:xlink="http://www.w3.org/1999/xlink" xml:space="preserve" xmlns:serif="http://www.serif.com/" style="fill-rule:evenodd;clip-rule:evenodd;stroke-linejoin:round;stroke-miterlimit:2;">
    <g transform="matrix(1,0,0,1,-478.695,-643.645)">
        <g>
            <g id="Confetti" transform="matrix(1,0,0,1,77.97,259.285)">
                <path d="M1002.03,1900.71C1002.03,1923.49 1020.5,1941.96 1043.28,1941.96C1066.06,1941.96 1084.53,1923.49 1084.53,1900.71C1084.53,1877.93 1066.06,1859.47 1043.28,1859.47C1020.5,1859.47 1002.03,1877.93 1002.03,1900.71Z" style="fill:rgb(36,167,255);fill-rule:nonzero;"/>
            </g>
            <g transform="matrix(1,0,0,1,-1122.28,-269.86)">
                <path d="M2843.72,2510.58C2843.72,2532.27 2861.31,2549.86 2883,2549.86C2904.69,2549.86 2922.28,2532.27 2922.28,2510.58C2922.28,2488.89 2904.69,2471.31 2883,2471.31C2861.31,2471.31 2843.72,2488.89 2843.72,2510.58Z" style="fill:rgb(39,242,111);fill-rule:nonzero;"/>
            </g>
            <g transform="matrix(1,0,0,1,43.033,282.83)">
                <path d="M675.852,993.94C675.852,993.94 675.184,1095.12 818.113,1171.92L721.936,1257.41C721.936,1257.41 583.015,1200.64 556.967,1055.04L675.852,993.94Z" style="fill:rgb(255,213,34);fill-rule:nonzero;"/>
            </g>
            <g id="Confetti1" serif:id="Confetti" transform="matrix(1,0,0,1,173.27,-2.85999)">
                <path d="M1360.03,3089.2C1360.03,3089.2 1274.71,3107.41 1236.55,3242L1146.73,3176.88C1146.73,3176.88 1168.76,3049.37 1286.53,3000.43L1360.03,3089.2Z" style="fill:rgb(36,167,255);fill-rule:nonzero;"/>
            </g>
            <path d="M656.85,2291.38C656.85,2291.38 732.145,2367.42 852.948,2313.89L841.642,2412.37C841.642,2412.37 734.69,2459.61 645.544,2389.86L656.85,2291.38Z" style="fill:rgb(242,39,97);fill-rule:nonzero;"/>
            <path d="M553.139,1798.52C553.139,1819.08 536.474,1835.74 515.917,1835.74C495.36,1835.74 478.695,1819.08 478.695,1798.52C478.695,1777.97 495.36,1761.3 515.917,1761.3C536.474,1761.3 553.139,1777.97 553.139,1798.52Z" style="fill:rgb(255,213,34);fill-rule:nonzero;"/>
            <path d="M1369.74,2537.04C1369.74,2558.73 1352.15,2576.31 1330.46,2576.31C1308.77,2576.31 1291.19,2558.73 1291.19,2537.04C1291.19,2515.35 1308.77,2497.76 1330.46,2497.76C1352.15,2497.76 1369.74,2515.35 1369.74,2537.04Z" style="fill:rgb(242,39,97);fill-rule:nonzero;"/>
            <g transform="matrix(1,0,0,1,-696.689,-3.95001)">
                <path d="M2714.19,3055.68C2714.19,3055.68 2786.18,3104.95 2770.31,3243.95L2878.14,3217.86C2878.14,3217.86 2906.23,3091.55 2815.91,3001.52L2714.19,3055.68Z" style="fill:rgb(255,213,34);fill-rule:nonzero;"/>
            </g>
            <g transform="matrix(1,0,0,1,-2403.91,-453.434)">
                <path d="M3569.15,1924.26C3569.15,1924.26 3509.5,2040.28 3349.42,2022.35L3398.68,2132.7C3398.68,2132.7 3540.36,2148.4 3618.41,2034.6L3569.15,1924.26Z" style="fill:rgb(36,167,255);fill-rule:nonzero;"/>
            </g>
            <g transform="matrix(1,0,0,1,-198.7,442.774)">
                <path d="M1291.26,579.03C1291.26,579.03 1355.89,509.806 1464.15,554.019L1451.59,467.192C1451.59,467.192 1355.75,428.181 1278.7,492.203L1291.26,579.03Z" style="fill:rgb(242,39,97);fill-rule:nonzero;"/>
            </g>
            <g transform="matrix(0.873238,-0.487293,0.487293,0.873238,787.024,1075.45)">
                <path d="M1002.03,1900.71C1002.03,1923.49 1020.5,1941.96 1043.28,1941.96C1066.06,1941.96 1084.53,1923.49 1084.53,1900.71C1084.53,1877.93 1066.06,1859.47 1043.28,1859.47C1020.5,1859.47 1002.03,1877.93 1002.03,1900.71Z" style="fill:rgb(242,39,97);fill-rule:nonzero;"/>
            </g>
            <g transform="matrix(0.873238,-0.487293,0.487293,0.873238,874.524,1292.73)">
                <path d="M675.852,993.94C675.852,993.94 675.184,1095.12 818.113,1171.92L721.936,1257.41C721.936,1257.41 583.015,1200.64 556.967,1055.04L675.852,993.94Z" style="fill:rgb(255,213,34);fill-rule:nonzero;"/>
            </g>
            <g transform="matrix(0.873238,-0.487293,0.487293,0.873238,-257.813,-908.477)">
                <path d="M1360.03,3089.2C1360.03,3089.2 1274.71,3107.41 1236.55,3242L1146.73,3176.88C1146.73,3176.88 1168.76,3049.37 1286.53,3000.43L1360.03,3089.2Z" style="fill:rgb(36,167,255);fill-rule:nonzero;"/>
            </g>
            <g transform="matrix(0.873238,-0.487293,0.487293,0.873238,729.514,1155.06)">
                <path d="M656.85,2291.38C656.85,2291.38 732.145,2367.42 852.948,2313.89L841.642,2412.37C841.642,2412.37 734.69,2459.61 645.544,2389.86L656.85,2291.38Z" style="fill:rgb(242,39,97);fill-rule:nonzero;"/>
            </g>
            <g transform="matrix(0.873238,-0.487293,0.487293,0.873238,787.024,1075.45)">
                <path d="M553.139,1798.52C553.139,1819.08 536.474,1835.74 515.917,1835.74C495.36,1835.74 478.695,1819.08 478.695,1798.52C478.695,1777.97 495.36,1761.3 515.917,1761.3C536.474,1761.3 553.139,1777.97 553.139,1798.52Z" style="fill:rgb(255,213,34);fill-rule:nonzero;"/>
            </g>
            <g transform="matrix(0.873238,-0.487293,0.487293,0.873238,442.625,952.887)">
                <path d="M1369.74,2537.04C1369.74,2558.73 1352.15,2576.31 1330.46,2576.31C1308.77,2576.31 1291.19,2558.73 1291.19,2537.04C1291.19,2515.35 1308.77,2497.76 1330.46,2497.76C1352.15,2497.76 1369.74,2515.35 1369.74,2537.04Z" style="fill:rgb(39,242,111);fill-rule:nonzero;"/>
            </g>
            <g transform="matrix(1,0,0,1,-1197.75,-911.31)">
                <path d="M2843.72,2510.58C2843.72,2532.27 2861.31,2549.86 2883,2549.86C2904.69,2549.86 2922.28,2532.27 2922.28,2510.58C2922.28,2488.89 2904.69,2471.31 2883,2471.31C2861.31,2471.31 2843.72,2488.89 2843.72,2510.58Z" style="fill:rgb(39,242,111);fill-rule:nonzero;"/>
            </g>
            <g transform="matrix(0.873238,-0.487293,0.487293,0.873238,-859.512,-526.395)">
                <path d="M1369.74,2537.04C1369.74,2558.73 1352.15,2576.31 1330.46,2576.31C1308.77,2576.31 1291.19,2558.73 1291.19,2537.04C1291.19,2515.35 1308.77,2497.76 1330.46,2497.76C1352.15,2497.76 1369.74,2515.35 1369.74,2537.04Z" style="fill:rgb(39,242,111);fill-rule:nonzero;"/>
            </g>
            <g transform="matrix(0.873238,-0.487293,0.487293,0.873238,347.511,1531.49)">
                <path d="M1291.26,579.03C1291.26,579.03 1355.89,509.806 1464.15,554.019L1451.59,467.192C1451.59,467.192 1355.75,428.181 1278.7,492.203L1291.26,579.03Z" style="fill:rgb(242,39,97);fill-rule:nonzero;"/>
            </g>
            <g transform="matrix(-0.448939,-0.893562,0.893562,-0.448939,1891.65,4988.89)">
                <path d="M2843.72,2510.58C2843.72,2532.27 2861.31,2549.86 2883,2549.86C2904.69,2549.86 2922.28,2532.27 2922.28,2510.58C2922.28,2488.89 2904.69,2471.31 2883,2471.31C2861.31,2471.31 2843.72,2488.89 2843.72,2510.58Z" style="fill:rgb(242,39,97);fill-rule:nonzero;"/>
            </g>
            <g transform="matrix(-0.448939,-0.893562,0.893562,-0.448939,1945.03,4991.17)">
                <path d="M3184.58,970.895C3184.58,970.895 3083.58,964.804 3016.49,817.065L2924.77,907.316C2924.77,907.316 2972.13,1049.72 3115.67,1085.43L3184.58,970.895Z" style="fill:rgb(242,39,97);fill-rule:nonzero;"/>
            </g>
            <g transform="matrix(0.873238,-0.487293,0.487293,0.873238,1234.52,1021.39)">
                <path d="M675.852,993.94C675.852,993.94 675.184,1095.12 818.113,1171.92L721.936,1257.41C721.936,1257.41 583.015,1200.64 556.967,1055.04L675.852,993.94Z" style="fill:rgb(39,242,111);fill-rule:nonzero;"/>
            </g>
            <g transform="matrix(-0.448939,-0.893562,0.893562,-0.448939,1502.64,5832.99)">
                <path d="M3184.58,970.895C3184.58,970.895 3083.58,964.804 3016.49,817.065L2924.77,907.316C2924.77,907.316 2972.13,1049.72 3115.67,1085.43L3184.58,970.895Z" style="fill:rgb(39,242,111);fill-rule:nonzero;"/>
            </g>
            <g transform="matrix(-0.118435,-0.992962,0.992962,-0.118435,-1007.13,3883.18)">
                <path d="M2714.19,3055.68C2714.19,3055.68 2786.18,3104.95 2770.31,3243.95L2878.14,3217.86C2878.14,3217.86 2906.23,3091.55 2815.91,3001.52L2714.19,3055.68Z" style="fill:rgb(255,213,34);fill-rule:nonzero;"/>
            </g>
            <g transform="matrix(-0.827458,-0.561528,0.561528,-0.827458,2552.69,3805.1)">
                <path d="M1002.03,1900.71C1002.03,1923.49 1020.5,1941.96 1043.28,1941.96C1066.06,1941.96 1084.53,1923.49 1084.53,1900.71C1084.53,1877.93 1066.06,1859.47 1043.28,1859.47C1020.5,1859.47 1002.03,1877.93 1002.03,1900.71Z" style="fill:rgb(242,39,97);fill-rule:nonzero;"/>
            </g>
            <g transform="matrix(-0.827458,-0.561528,0.561528,-0.827458,1446.46,3203.66)">
                <path d="M656.85,2291.38C656.85,2291.38 732.145,2367.42 852.948,2313.89L841.642,2412.37C841.642,2412.37 734.69,2459.61 645.544,2389.86L656.85,2291.38Z" style="fill:rgb(39,242,111);fill-rule:nonzero;"/>
            </g>
            <g transform="matrix(-0.827458,-0.561528,0.561528,-0.827458,2379.75,3813.13)">
                <path d="M553.139,1798.52C553.139,1819.08 536.474,1835.74 515.917,1835.74C495.36,1835.74 478.695,1819.08 478.695,1798.52C478.695,1777.97 495.36,1761.3 515.917,1761.3C536.474,1761.3 553.139,1777.97 553.139,1798.52Z" style="fill:rgb(255,213,34);fill-rule:nonzero;"/>
            </g>
            <g transform="matrix(-0.827458,-0.561528,0.561528,-0.827458,2397.01,3845.66)">
                <path d="M1369.74,2537.04C1369.74,2558.73 1352.15,2576.31 1330.46,2576.31C1308.77,2576.31 1291.19,2558.73 1291.19,2537.04C1291.19,2515.35 1308.77,2497.76 1330.46,2497.76C1352.15,2497.76 1369.74,2515.35 1369.74,2537.04Z" style="fill:rgb(242,39,97);fill-rule:nonzero;"/>
            </g>
            <g transform="matrix(-0.827458,-0.561528,0.561528,-0.827458,2663.32,3884.54)">
                <path d="M1291.26,579.03C1291.26,579.03 1355.89,509.806 1464.15,554.019L1451.59,467.192C1451.59,467.192 1355.75,428.181 1278.7,492.203L1291.26,579.03Z" style="fill:rgb(242,39,97);fill-rule:nonzero;"/>
            </g>
            <g transform="matrix(1,0,0,1,-1941.3,-327.8)">
                <path d="M3214.94,1574.16C3214.94,1599.76 3235.7,1620.52 3261.3,1620.52C3286.9,1620.52 3307.66,1599.76 3307.66,1574.16C3307.66,1548.56 3286.9,1527.8 3261.3,1527.8C3235.7,1527.8 3214.94,1548.56 3214.94,1574.16Z" style="fill:rgb(255,213,34);fill-rule:nonzero;"/>
            </g>
        </g>
    </g>
</svg>
