<?xml version="1.0" encoding="UTF-8" standalone="no"?>
<!DOCTYPE svg PUBLIC "-//W3C//DTD SVG 1.1//EN" "http://www.w3.org/Graphics/SVG/1.1/DTD/svg11.dtd">
<svg width="3120px" height="3120px" version="1.1" xmlns="http://www.w3.org/2000/svg" xmlns:xlink="http://www.w3.org/1999/xlink" xml:space="preserve" xmlns:serif="http://www.serif.com/" style="fill-rule:evenodd;clip-rule:evenodd;stroke-linejoin:round;stroke-miterlimit:2;">
    <g transform="matrix(1,0,0,1,660,-120)">
        <g transform="matrix(0.857839,-0.513918,0.513918,0.857839,-680.502,545.954)">
            <g id="BalloonTail" transform="matrix(-0.781355,0.124394,0.164372,1.03247,2011.96,-799.699)">
                <path d="M2183.9,2250.47C2173.66,2384.74 2171.66,2519.17 2174.77,2653.76C2176.08,2710.83 2178.05,2770.8 2158.24,2825.27C2137.37,2882.66 2088.55,2914.12 2047.71,2956.1C1965.93,3040.16 1924.44,3141.97 1896.77,3254.06C1883.27,3308.74 1868.83,3364.26 1835.34,3410.6C1820.17,3431.59 1800.99,3450.25 1778.26,3462.87C1748.52,3479.37 1715.87,3478.3 1683.11,3482.55C1632.06,3489.17 1575.95,3512.12 1551.18,3560.4C1530.8,3600.13 1536.78,3655.62 1571.41,3685.61C1578.59,3691.83 1587.82,3682.47 1581.77,3675.26C1542.63,3628.6 1574.36,3565.84 1620.74,3538.8C1670.1,3510.03 1727.96,3522.99 1779.16,3501.66C1878.22,3460.38 1909.52,3349.1 1931.89,3254.45C1958.43,3142.16 2003.68,3042.4 2089.1,2962.31C2128.37,2925.49 2165.58,2892.54 2184.68,2840.64C2202.69,2791.69 2204.5,2737.78 2203.69,2686.2C2201.41,2540.7 2199.75,2395.94 2206.33,2250.47C2206.98,2235.95 2184.99,2236.22 2183.9,2250.47Z" style="fill:rgb(255,255,255);fill-rule:nonzero;"/>
            </g>
            <g id="BalloonBorder2" transform="matrix(1,0,0,1,-1458.35,-407.256)">
                <path d="M2103.94,2398.65C2089.74,2398.65 2075.84,2396.6 2063.5,2391.34C2047.37,2384.47 2036.84,2372.2 2033.04,2355.86C2018.77,2294.48 2110.93,2185.24 2121.49,2172.99C2127.65,2165.83 2138.43,2165.04 2145.58,2171.19C2152.73,2177.35 2153.53,2188.13 2147.38,2195.28C2111.88,2236.52 2058.49,2314.49 2066.32,2348.12C2067.64,2353.79 2070.8,2357.31 2076.89,2359.9C2110.08,2374.04 2172.14,2351.82 2193.25,2342.06C2196.28,2340.66 2199.64,2340.16 2202.94,2340.67C2226.27,2344.1 2292.7,2348.07 2319.51,2325.51C2324.03,2321.7 2325.72,2318.04 2325.35,2312.86C2323.01,2280.43 2249,2220.58 2197.19,2188.44C2189.17,2183.47 2186.71,2172.93 2191.68,2164.92C2196.66,2156.9 2207.19,2154.43 2215.21,2159.4C2238.51,2173.86 2355,2249.1 2359.43,2310.39C2360.6,2326.54 2354.4,2340.8 2341.51,2351.65C2302.36,2384.6 2224.99,2377.87 2202.96,2375.14C2187.98,2381.63 2144.79,2398.65 2103.94,2398.65Z" style="fill:rgb(255,255,255);fill-rule:nonzero;"/>
            </g>
            <g id="BalloonBorder3" transform="matrix(1,0,0,1,-1458.35,-407.256)">
                <path d="M2117.3,2315.05C2138.73,2317.67 2159.1,2326.58 2179.84,2331.87C2200.31,2337.68 2220.83,2341.96 2240.91,2343.64C2250.4,2344.43 2257.45,2352.77 2256.66,2362.26C2255.9,2373.49 2243.86,2381.06 2233.41,2376.97C2211.75,2369.08 2191.84,2358.82 2173.08,2347.56C2154.21,2336.9 2137.31,2323.23 2117.3,2315.05Z" style="fill:rgb(255,255,255);fill-rule:nonzero;"/>
            </g>
            <g id="BalloonBorder1" transform="matrix(1,0,0,1,-1458.35,-407.256)">
                <path d="M2131.84,2247.88C1826.66,2247.75 1535.21,2062.29 1375.37,1806.89C1077.87,1328.23 1248.15,719.589 1830.57,594.724C1839.88,593.608 1858.28,590.421 1867.55,588.917C1905.27,582.253 1943.82,578.457 1982.19,576.602C2637.1,548.237 2926.93,1279.2 2655.76,1809.56C2563.79,1990.19 2416.07,2151.77 2227.06,2230.39C2222.65,2232.2 2217.6,2230.1 2215.79,2225.69C2214.23,2221.92 2215.55,2217.67 2218.72,2215.4C2380.77,2098.73 2527.15,1972.46 2615.05,1789.32C2888.76,1237.9 2547.64,519.217 1875.3,638.392C1307.61,730.688 1126.12,1313.19 1413.29,1783.27C1578.08,2050.54 1833,2174.7 2133.3,2233.16C2137.33,2234.02 2139.9,2238.01 2139.01,2242.04C2138.25,2245.48 2135.22,2247.84 2131.84,2247.88Z" style="fill:rgb(255,255,255);fill-rule:nonzero;"/>
            </g>
            <g id="BalloonBody" transform="matrix(1,0,0,1,-1458.35,-407.256)">
                <path d="M2222.89,2222.89C2192.58,2234.56 2162.46,2240.51 2132.58,2240.51C1934.79,2220.94 1767.51,2152.65 1633.86,2054.24L1633.81,2054.14C1098.76,1660.22 1101.2,783.963 1834.38,619.46L1851.91,616.922C2227.48,545.41 2502.74,718.162 2638.49,980.73L2638.49,980.779C2836.23,1363.28 2738.07,1936.36 2222.89,2222.89Z" style="fill:rgb(221,47,47);fill-rule:nonzero;"/>
            </g>
            <g id="BalloonButt" transform="matrix(1,0,0,1,-1458.35,-407.256)">
                <path d="M2134.43,2184.13C2134.43,2184.13 1996.52,2344.23 2070.19,2375.62C2117.79,2395.9 2200.43,2357.57 2200.43,2357.57C2200.43,2357.57 2291.82,2371.13 2330.51,2338.58C2390.39,2288.2 2206.2,2173.92 2206.2,2173.92" style="fill:rgb(192,8,8);fill-rule:nonzero;"/>
            </g>
            <g id="BalloonShadow" transform="matrix(1,0,0,1,-1458.35,-407.256)">
                <path d="M2222.89,2222.89C2192.58,2234.56 2162.46,2240.51 2132.58,2240.51C1934.79,2220.94 1767.51,2152.65 1633.86,2054.24L1633.81,2054.14C2235.09,2269.27 2689.06,1707.96 2638.49,980.779C2836.23,1363.28 2738.07,1936.36 2222.89,2222.89Z" style="fill:rgb(192,8,8);fill-rule:nonzero;"/>
            </g>
            <g id="BalloonShine" transform="matrix(1,0,0,1,-1458.35,-407.256)">
                <path d="M1563.12,1996.56C1195.42,1666.03 1141.81,1089.95 1486.56,788.759L1486.58,788.745C1486.79,788.56 1486.96,788.41 1487.18,788.225C1487.2,788.201 1487.2,788.201 1487.23,788.177C1487.44,787.992 1487.61,787.848 1487.82,787.663C1487.85,787.639 1487.84,787.648 1487.87,787.624C1488.08,787.44 1488.23,787.306 1488.45,787.122C1488.47,787.097 1488.49,787.081 1488.52,787.057C1488.73,786.872 1488.88,786.743 1489.09,786.559C1489.12,786.535 1489.13,786.531 1489.16,786.507C1489.37,786.323 1489.51,786.2 1489.72,786.016C1489.75,785.992 1489.79,785.961 1489.81,785.937C1490,785.776 1490.19,785.618 1490.37,785.457C1490.4,785.433 1490.43,785.41 1490.46,785.386C1490.64,785.225 1490.82,785.069 1491.01,784.908C1491.04,784.884 1491.08,784.846 1491.11,784.822C1491.3,784.661 1491.48,784.507 1491.67,784.346C1491.69,784.322 1491.71,784.309 1491.74,784.285C1491.9,784.148 1492.1,783.973 1492.26,783.835C1492.32,783.787 1492.33,783.776 1492.39,783.728C1492.55,783.591 1492.75,783.424 1492.91,783.287C1492.94,783.263 1492.97,783.23 1493,783.206C1493.19,783.046 1493.35,782.912 1493.54,782.752C1493.59,782.704 1493.61,782.691 1493.66,782.643C1493.82,782.506 1494.02,782.337 1494.19,782.2C1494.21,782.176 1494.29,782.115 1494.31,782.091C1494.48,781.954 1494.66,781.801 1494.82,781.665C1494.87,781.617 1494.93,781.569 1494.99,781.522C1495.15,781.385 1495.31,781.253 1495.47,781.117C1495.52,781.069 1495.59,781.014 1495.65,780.966C1495.81,780.829 1495.96,780.703 1496.12,780.566C1496.18,780.519 1496.25,780.455 1496.31,780.408C1496.47,780.271 1496.62,780.149 1496.78,780.012C1496.87,779.941 1496.88,779.929 1496.96,779.858C1497.13,779.722 1497.27,779.598 1497.44,779.462C1497.49,779.414 1497.58,779.344 1497.63,779.297C1497.77,779.184 1497.94,779.044 1498.07,778.93C1498.13,778.883 1498.23,778.802 1498.28,778.755C1498.42,778.641 1498.56,778.522 1498.7,778.409C1498.78,778.338 1498.85,778.283 1498.93,778.212C1499.07,778.099 1499.21,777.98 1499.35,777.867C1499.41,777.819 1499.5,777.743 1499.56,777.696C1499.69,777.583 1499.85,777.451 1499.99,777.338C1500.07,777.267 1500.14,777.214 1500.22,777.143C1500.36,777.03 1500.49,776.918 1500.63,776.805C1500.69,776.758 1500.78,776.679 1500.84,776.631C1500.98,776.519 1501.16,776.371 1501.29,776.258C1501.38,776.187 1501.42,776.151 1501.51,776.08C1501.65,775.967 1501.82,775.824 1501.96,775.711C1502.04,775.641 1502.09,775.6 1502.18,775.529C1502.34,775.394 1502.45,775.306 1502.62,775.171C1502.67,775.124 1502.81,775.016 1502.86,774.969C1503.03,774.834 1503.11,774.765 1503.28,774.63C1503.36,774.56 1503.45,774.488 1503.54,774.417C1503.67,774.305 1503.81,774.192 1503.95,774.08C1504.04,774.009 1504.12,773.945 1504.2,773.874C1504.34,773.762 1504.47,773.653 1504.61,773.541C1504.7,773.47 1504.78,773.407 1504.86,773.336C1504.97,773.247 1505.12,773.132 1505.23,773.042C1505.31,772.972 1505.46,772.854 1505.54,772.783C1505.66,772.694 1505.74,772.622 1505.85,772.532C1505.97,772.438 1506.11,772.323 1506.23,772.229C1506.34,772.14 1506.41,772.087 1506.52,771.998C1506.63,771.904 1506.77,771.79 1506.89,771.697C1507,771.607 1507.08,771.539 1507.19,771.45C1507.34,771.333 1507.41,771.279 1507.55,771.163C1507.66,771.074 1507.74,771.007 1507.86,770.918C1507.97,770.825 1508.12,770.708 1508.23,770.615C1508.34,770.526 1508.42,770.467 1508.53,770.379C1508.64,770.285 1508.76,770.191 1508.88,770.098C1508.99,770.009 1509.1,769.921 1509.21,769.833C1509.3,769.763 1509.41,769.676 1509.49,769.606C1509.6,769.518 1509.79,769.37 1509.9,769.282C1510.02,769.189 1510.05,769.159 1510.17,769.066C1510.31,768.955 1510.43,768.856 1510.57,768.745C1510.66,768.675 1510.78,768.584 1510.86,768.514C1510.98,768.426 1511.07,768.353 1511.18,768.264C1511.3,768.172 1511.44,768.054 1511.56,767.962C1511.64,767.895 1511.69,767.861 1511.77,767.795C1511.92,767.679 1512.1,767.538 1512.24,767.422C1512.33,767.356 1512.38,767.311 1512.47,767.245C1512.61,767.129 1512.79,766.988 1512.94,766.873C1513,766.829 1513.06,766.776 1513.12,766.732C1513.29,766.594 1513.47,766.457 1513.64,766.318C1513.7,766.274 1513.74,766.24 1513.8,766.196C1513.98,766.057 1514.18,765.899 1514.36,765.76C1514.38,765.738 1514.45,765.689 1514.47,765.667C1514.68,765.506 1514.84,765.379 1515.05,765.218C1515.08,765.196 1515.15,765.139 1515.18,765.118C1515.38,764.956 1515.57,764.808 1515.78,764.647C1515.81,764.625 1515.83,764.607 1515.86,764.585C1516.69,763.941 1517.5,763.31 1518.33,762.669L1518.34,762.664C1518.81,762.297 1519.28,761.938 1519.75,761.572L1519.76,761.567C1520,761.384 1520.22,761.216 1520.46,761.034L1520.49,761.007C1520.73,760.825 1520.92,760.68 1521.16,760.498L1521.21,760.457C1521.45,760.275 1521.65,760.122 1521.89,759.94C1521.92,759.918 1521.88,759.945 1521.91,759.923C1575.44,719.164 1637.3,684.49 1707.78,657.447L1707.79,657.442C1708.11,657.321 1708.4,657.207 1708.72,657.086L1708.74,657.08C1709.05,656.959 1709.34,656.849 1709.66,656.729L1709.69,656.717C1710,656.597 1710.26,656.5 1710.57,656.38C1710.61,656.365 1710.61,656.366 1710.65,656.351C1710.96,656.232 1711.19,656.145 1711.51,656.025C1711.55,656.011 1711.55,656.009 1711.59,655.995C1713.33,655.338 1715.04,654.695 1716.79,654.047L1716.81,654.041C1717.13,653.924 1717.4,653.822 1717.72,653.704C1717.76,653.69 1717.77,653.684 1717.81,653.67C1718.09,653.568 1718.38,653.459 1718.66,653.356C1718.7,653.342 1718.71,653.337 1718.75,653.323C1719.07,653.206 1719.29,653.126 1719.61,653.009C1719.65,652.995 1719.67,652.987 1719.71,652.973C1720.02,652.856 1720.27,652.767 1720.59,652.65C1720.63,652.636 1720.6,652.648 1720.63,652.634C1720.91,652.532 1721.22,652.418 1721.5,652.316C1721.54,652.302 1721.57,652.293 1721.61,652.279C1721.93,652.163 1722.16,652.079 1722.48,651.963L1722.55,651.938C1723.35,651.648 1724.12,651.367 1724.93,651.079C1724.96,651.065 1725.01,651.047 1725.05,651.034C1725.33,650.933 1725.57,650.847 1725.85,650.746C1725.93,650.719 1725.99,650.696 1726.07,650.669C1726.35,650.568 1726.53,650.504 1726.81,650.404C1726.85,650.391 1726.96,650.353 1726.99,650.34C1727.23,650.254 1727.53,650.15 1727.77,650.064C1727.81,650.05 1727.89,650.022 1727.93,650.008C1728.17,649.923 1728.47,649.814 1728.72,649.728C1728.79,649.701 1728.82,649.693 1728.89,649.665C1729.14,649.58 1729.4,649.485 1729.65,649.4C1729.72,649.373 1729.77,649.355 1729.85,649.328C1730.09,649.242 1730.38,649.141 1730.62,649.056C1730.66,649.042 1730.75,649.01 1730.79,648.997C1731.07,648.898 1731.28,648.826 1731.56,648.727C1731.6,648.714 1731.71,648.675 1731.75,648.662C1732.03,648.563 1732.22,648.498 1732.5,648.399C1732.58,648.373 1732.63,648.353 1732.71,648.326C1732.99,648.227 1733.2,648.156 1733.48,648.057C1733.56,648.031 1733.57,648.026 1733.65,647.999C1734.14,647.83 1734.59,647.672 1735.08,647.504C1735.16,647.477 1735.15,647.479 1735.23,647.453C1735.51,647.355 1735.77,647.268 1736.05,647.17C1736.09,647.157 1736.14,647.138 1736.18,647.125C1736.43,647.041 1736.74,646.934 1736.98,646.851C1737.06,646.824 1737.13,646.801 1737.2,646.774C1737.45,646.691 1737.69,646.607 1737.94,646.524C1738.01,646.498 1738.09,646.473 1738.16,646.447C1738.41,646.363 1738.63,646.288 1738.87,646.205C1738.95,646.178 1739.06,646.141 1739.14,646.115C1739.38,646.032 1739.57,645.969 1739.81,645.886C1739.89,645.86 1740.03,645.815 1740.1,645.788C1740.31,645.719 1740.54,645.64 1740.75,645.571C1740.86,645.532 1740.94,645.504 1741.06,645.465C1741.26,645.396 1741.48,645.324 1741.68,645.256C1741.8,645.216 1741.9,645.183 1742.01,645.144C1742.18,645.089 1742.4,645.016 1742.56,644.961C1742.72,644.909 1742.81,644.877 1742.97,644.825C1743.17,644.757 1743.32,644.709 1743.52,644.64C1743.64,644.601 1743.81,644.545 1743.92,644.506C1744.09,644.451 1744.2,644.413 1744.37,644.359C1744.52,644.307 1744.73,644.236 1744.89,644.184C1745.05,644.13 1745.15,644.097 1745.32,644.043C1745.43,644.004 1745.61,643.945 1745.73,643.906C1745.89,643.852 1746.12,643.778 1746.28,643.724C1746.4,643.685 1746.52,643.646 1746.63,643.608C1746.84,643.54 1747.02,643.479 1747.23,643.412C1747.35,643.373 1747.48,643.33 1747.6,643.292C1747.8,643.224 1747.97,643.167 1748.18,643.1C1748.3,643.061 1748.43,643.017 1748.55,642.979C1748.71,642.925 1748.97,642.842 1749.13,642.788C1749.29,642.737 1749.35,642.717 1749.51,642.666C1749.67,642.612 1749.91,642.534 1750.08,642.48C1750.24,642.429 1750.31,642.406 1750.47,642.355C1750.67,642.288 1750.82,642.241 1751.02,642.174C1751.18,642.123 1751.27,642.095 1751.43,642.044C1751.59,641.99 1751.8,641.922 1751.97,641.868C1752.13,641.818 1752.22,641.786 1752.38,641.735C1752.51,641.695 1752.7,641.633 1752.82,641.593C1752.98,641.543 1753.2,641.471 1753.36,641.42C1753.49,641.381 1753.62,641.337 1753.75,641.297C1753.9,641.246 1754.17,641.161 1754.33,641.11C1754.45,641.071 1754.58,641.031 1754.7,640.991C1754.9,640.928 1755.11,640.861 1755.31,640.799C1755.43,640.759 1755.54,640.725 1755.67,640.685C1755.86,640.622 1756.07,640.555 1756.27,640.493C1756.4,640.453 1756.51,640.417 1756.63,640.378C1756.83,640.316 1756.99,640.266 1757.19,640.204C1757.35,640.151 1757.43,640.127 1757.6,640.074C1757.75,640.024 1757.92,639.973 1758.08,639.923C1758.2,639.884 1758.43,639.812 1758.55,639.773C1758.71,639.723 1758.86,639.676 1759.02,639.626C1759.19,639.574 1759.36,639.521 1759.52,639.469C1759.68,639.419 1759.8,639.382 1759.96,639.333C1760.13,639.281 1760.3,639.226 1760.47,639.174C1760.63,639.125 1760.78,639.079 1760.94,639.029C1761.1,638.977 1761.23,638.936 1761.4,638.885C1761.56,638.835 1761.75,638.777 1761.9,638.728C1762.03,638.689 1762.13,638.66 1762.25,638.621C1762.45,638.559 1762.7,638.484 1762.89,638.422C1763.02,638.384 1763.1,638.36 1763.22,638.322C1763.42,638.26 1763.65,638.189 1763.85,638.128C1763.98,638.089 1764.08,638.059 1764.2,638.021C1764.44,637.947 1764.6,637.9 1764.83,637.826C1764.92,637.801 1765.09,637.748 1765.17,637.722C1765.41,637.649 1765.56,637.604 1765.8,637.531C1765.93,637.492 1766.03,637.462 1766.15,637.424C1766.35,637.363 1766.58,637.293 1766.78,637.233C1766.91,637.194 1767,637.167 1767.12,637.129C1767.28,637.081 1767.51,637.012 1767.67,636.963C1767.84,636.912 1767.94,636.884 1768.1,636.833C1768.26,636.785 1768.47,636.722 1768.63,636.673C1768.76,636.636 1768.92,636.587 1769.05,636.549C1769.21,636.501 1769.45,636.428 1769.61,636.38C1769.7,636.354 1769.9,636.294 1769.98,636.269C1770.18,636.208 1770.39,636.146 1770.59,636.086C1770.72,636.048 1770.77,636.033 1770.9,635.995C1771.1,635.935 1771.34,635.863 1771.54,635.803C1771.62,635.778 1771.76,635.737 1771.85,635.712C1772.09,635.641 1772.28,635.585 1772.52,635.513C1772.6,635.488 1772.72,635.455 1772.8,635.43C1773.04,635.358 1773.25,635.298 1773.49,635.227C1773.61,635.189 1773.66,635.175 1773.79,635.137C1774.03,635.066 1774.23,635.007 1774.48,634.936C1774.56,634.911 1774.68,634.876 1774.76,634.851C1775.01,634.78 1775.21,634.72 1775.45,634.649C1775.54,634.625 1775.67,634.584 1775.76,634.56C1776,634.489 1776.2,634.43 1776.44,634.36C1776.57,634.323 1776.6,634.316 1776.72,634.279C1776.96,634.208 1777.19,634.142 1777.44,634.071C1777.52,634.047 1777.61,634.02 1777.7,633.996C1777.94,633.925 1778.19,633.854 1778.43,633.783C1778.51,633.759 1778.57,633.742 1778.66,633.717C1778.9,633.647 1779.13,633.582 1779.37,633.512C1779.46,633.488 1779.55,633.461 1779.63,633.437C1779.88,633.367 1780.07,633.312 1780.31,633.242C1780.4,633.217 1780.49,633.19 1780.58,633.165C1780.82,633.096 1781.02,633.04 1781.26,632.971C1781.34,632.946 1781.45,632.917 1781.53,632.893C1781.78,632.823 1781.99,632.761 1782.24,632.692C1782.32,632.668 1782.39,632.648 1782.48,632.624C1782.72,632.555 1782.97,632.484 1783.22,632.415C1783.3,632.39 1783.39,632.366 1783.47,632.342C1783.72,632.273 1783.95,632.207 1784.19,632.138C1784.28,632.114 1784.38,632.086 1784.46,632.062C1784.71,631.994 1784.96,631.923 1785.2,631.854C1785.29,631.83 1785.35,631.812 1785.44,631.788C1785.68,631.72 1785.95,631.645 1786.19,631.577C1786.28,631.553 1786.34,631.536 1786.43,631.512C1786.67,631.444 1786.95,631.367 1787.19,631.298C1787.23,631.287 1787.37,631.248 1787.42,631.236C1787.66,631.168 1787.93,631.092 1788.18,631.025C1788.26,631.001 1788.32,630.984 1788.41,630.961C1788.65,630.893 1788.93,630.816 1789.18,630.749C1789.26,630.725 1789.31,630.712 1789.39,630.689C1789.64,630.621 1789.88,630.554 1790.13,630.486C1790.21,630.463 1790.28,630.446 1790.36,630.422C1790.61,630.355 1790.84,630.291 1791.09,630.224C1791.17,630.2 1791.24,630.183 1791.32,630.159C1791.57,630.092 1791.79,630.031 1792.04,629.964C1792.12,629.94 1792.2,629.918 1792.29,629.895C1792.54,629.828 1792.79,629.759 1793.04,629.692C1793.12,629.669 1793.17,629.656 1793.26,629.632C1793.5,629.566 1793.78,629.49 1794.03,629.423C1794.07,629.412 1794.21,629.373 1794.26,629.362C1794.5,629.295 1794.78,629.222 1795.02,629.156C1795.11,629.133 1795.18,629.115 1795.26,629.092C1795.51,629.025 1795.77,628.956 1796.01,628.89C1796.1,628.867 1796.18,628.845 1796.27,628.822C1796.52,628.755 1796.77,628.689 1797.01,628.623C1797.1,628.6 1797.18,628.578 1797.27,628.555C1797.51,628.489 1797.78,628.418 1798.03,628.352C1798.07,628.34 1798.21,628.305 1798.25,628.294C1798.5,628.228 1798.79,628.152 1799.03,628.086C1799.12,628.063 1799.16,628.053 1799.24,628.031C1799.53,627.954 1799.75,627.897 1800.04,627.821C1800.13,627.798 1800.15,627.792 1800.24,627.769C1800.49,627.704 1800.78,627.627 1801.03,627.562C1801.07,627.55 1801.15,627.529 1801.19,627.518C1801.44,627.453 1801.76,627.371 1802.01,627.306C1802.05,627.295 1802.09,627.285 1802.13,627.274C1802.42,627.198 1802.68,627.129 1802.97,627.054C1803.02,627.043 1803.08,627.026 1803.13,627.014C1803.42,626.939 1803.67,626.873 1803.96,626.798C1804.05,626.775 1804.05,626.775 1804.14,626.753C1804.43,626.678 1804.66,626.619 1804.95,626.545C1804.99,626.533 1805.11,626.502 1805.16,626.491C1805.41,626.426 1805.71,626.347 1805.96,626.283C1806.01,626.272 1806.12,626.244 1806.16,626.233C1806.41,626.169 1806.71,626.092 1806.96,626.028C1807.05,626.006 1807.09,625.996 1807.17,625.974C1807.42,625.91 1807.72,625.834 1807.97,625.77C1808.02,625.759 1808.14,625.729 1808.18,625.718C1808.43,625.654 1808.73,625.579 1808.98,625.516C1809.02,625.505 1809.15,625.473 1809.19,625.462C1809.48,625.389 1809.72,625.329 1810.01,625.256C1810.1,625.233 1810.08,625.237 1810.17,625.215C1810.46,625.142 1810.74,625.074 1811.03,625C1811.07,624.99 1811.12,624.977 1811.17,624.966C1811.46,624.893 1811.75,624.821 1812.04,624.748C1812.08,624.737 1812.1,624.733 1812.14,624.722C1812.39,624.66 1812.73,624.576 1812.98,624.514C1813.02,624.503 1813.09,624.488 1813.13,624.477C1813.42,624.404 1813.71,624.334 1814,624.261C1814.05,624.25 1814.08,624.243 1814.12,624.232C1814.41,624.159 1814.7,624.089 1814.99,624.017C1815.04,624.006 1815.11,623.989 1815.15,623.978C1815.44,623.906 1815.71,623.842 1816,623.77C1816.04,623.759 1816.12,623.74 1816.17,623.729C1816.42,623.667 1816.76,623.585 1817.01,623.524C1817.05,623.513 1817.15,623.49 1817.19,623.479C1817.44,623.418 1817.78,623.335 1818.04,623.274C1818.12,623.252 1818.11,623.257 1818.19,623.236C1818.45,623.174 1818.79,623.091 1819.05,623.03C1819.09,623.019 1819.18,622.998 1819.22,622.987C1819.52,622.916 1819.78,622.853 1820.07,622.782C1820.12,622.772 1820.18,622.756 1820.23,622.745C1820.52,622.674 1820.8,622.607 1821.1,622.537C1821.14,622.526 1821.19,622.515 1821.23,622.504C1821.53,622.434 1821.84,622.36 1822.13,622.29C1822.18,622.279 1822.17,622.282 1822.21,622.271C1822.55,622.191 1822.82,622.126 1823.16,622.046L1823.2,622.038C1823.53,621.958 1823.81,621.893 1824.15,621.813C1824.19,621.803 1824.15,621.812 1824.2,621.801C1824.49,621.731 1824.83,621.651 1825.13,621.582C1825.18,621.572 1825.19,621.568 1825.23,621.558C1825.53,621.488 1825.85,621.414 1826.14,621.345C1826.19,621.335 1826.21,621.329 1826.26,621.319C1826.55,621.249 1826.86,621.179 1827.15,621.11C1827.2,621.1 1827.25,621.088 1827.29,621.078C1827.59,621.009 1827.88,620.943 1828.17,620.874C1828.22,620.864 1828.28,620.85 1828.32,620.84C1828.57,620.781 1828.94,620.696 1829.2,620.638C1829.24,620.628 1829.3,620.613 1829.35,620.603C1829.65,620.534 1829.93,620.469 1830.23,620.4C1830.28,620.39 1830.32,620.379 1830.37,620.369C1830.67,620.301 1830.96,620.234 1831.26,620.166C1831.3,620.156 1831.35,620.144 1831.4,620.134C1831.69,620.067 1832,619.997 1832.3,619.929C1832.35,619.919 1832.35,619.917 1832.4,619.907C1832.7,619.839 1833.04,619.761 1833.34,619.694C1833.38,619.684 1833.36,619.69 1833.4,619.68C1833.74,619.603 1834.04,619.536 1834.38,619.46L1851.91,616.922C1893.33,609.034 1933.55,604.118 1972.48,601.967C1987.84,601.119 2003.02,600.7 2017.98,600.7C2224.77,600.7 2393.09,680.506 2514.39,806.467C2397.2,703.284 2243.34,639.751 2058.79,639.751C2005.91,639.751 1950.48,644.973 1892.71,655.973L1875.19,658.511C1197.17,810.637 1144.13,1571.4 1563.12,1996.56Z" style="fill:rgb(251,135,135);fill-rule:nonzero;"/>
            </g>
            <g id="BalloonSpecular2" transform="matrix(1,0,0,1,-1458.35,-407.256)">
                <path d="M1635.57,1662.36C1599.25,1662.36 1560.33,1646.8 1532.32,1616.43C1430.79,1506.36 1420.94,1301.16 1446.9,1159.29C1470.59,1029.79 1516.05,968.805 1560.25,968.805C1564.47,968.805 1568.69,969.363 1572.86,970.469C1627.77,985.008 1630.23,1136.78 1657.98,1282.68C1681.96,1408.74 1746.6,1498.11 1734.78,1579.72C1726.72,1635.39 1683.4,1662.37 1635.57,1662.36Z" style="fill:rgb(251,135,135);fill-rule:nonzero;"/>
            </g>
            <g id="BalloonSpecular1" transform="matrix(1,0,0,1,-1458.35,-407.256)">
                <path d="M1791.65,1926.56C1723.26,1926.55 1638.06,1870.74 1633.92,1775.28C1630.58,1698.24 1700.01,1683.52 1747.67,1683.52C1756.2,1683.52 1764.04,1684 1770.64,1684.67C1823.42,1690.04 1860.51,1725.29 1883.41,1772.36C1916.61,1840.61 1894.36,1899.26 1824.29,1921.74C1814.2,1924.98 1803.17,1926.56 1791.65,1926.56Z" style="fill:rgb(251,135,135);fill-rule:nonzero;"/>
            </g>
        </g>
    </g>
</svg>
