<?xml version="1.0" encoding="UTF-8" standalone="no"?>
<!DOCTYPE svg PUBLIC "-//W3C//DTD SVG 1.1//EN" "http://www.w3.org/Graphics/SVG/1.1/DTD/svg11.dtd">
<svg width="512px" height="512px" version="1.1" xmlns="http://www.w3.org/2000/svg" xmlns:xlink="http://www.w3.org/1999/xlink" xml:space="preserve" xmlns:serif="http://www.serif.com/" style="fill-rule:evenodd;clip-rule:evenodd;stroke-linejoin:round;stroke-miterlimit:2;">
    <g>
        <path d="M198.012,215L195.607,220.254C153.933,311.309 96.85,395.687 25.355,473.93L11.584,489L497.318,489L487.365,474.828C426.91,388.75 357.94,302.642 328.467,220.945L326.32,215L198.012,215ZM190.182,271.92L198.869,320L218.535,276.215L240,320L264.78,272L272,336L296.385,272L336,320L333.135,276.027C366.38,341.224 416.418,406.385 462.463,471L51.936,471C106.946,408.627 153.252,342.35 190.182,271.92Z" style="fill:rgb(125,212,255);fill-rule:nonzero;"/>
        <path d="M154.256,47.115C101.592,47.115 58.256,90.451 58.256,143.115C58.256,195.779 101.592,239.115 154.256,239.115C159.003,239.087 163.741,238.708 168.432,237.979C174.454,225.949 179.863,214.177 184.338,202.919L186.586,197.266L233.626,197.094C244.455,181.178 250.251,162.366 250.256,143.115C250.256,90.451 206.92,47.115 154.256,47.115Z" style="fill:rgb(255,125,182);fill-rule:nonzero;"/>
    </g>
</svg>
