<?xml version="1.0" encoding="UTF-8" standalone="no"?>
<!DOCTYPE svg PUBLIC "-//W3C//DTD SVG 1.1//EN" "http://www.w3.org/Graphics/SVG/1.1/DTD/svg11.dtd">
<svg width="512px" height="512px" version="1.1" xmlns="http://www.w3.org/2000/svg" xmlns:xlink="http://www.w3.org/1999/xlink" xml:space="preserve" xmlns:serif="http://www.serif.com/" style="fill-rule:evenodd;clip-rule:evenodd;stroke-linecap:round;stroke-linejoin:round;stroke-miterlimit:1.5;">
    <g transform="matrix(1.12727,0,0,0.956923,-41.5051,15.5969)">
        <ellipse cx="262.5" cy="252.5" rx="137.5" ry="162.5" style="fill:white;stroke:rgb(125,212,255);stroke-width:4.78px;"/>
    </g>
    <g>
        <g transform="matrix(1,0,0,1,-0.596,-2.28)">
            <path d="M234.875,18.78C208.788,21.147 183.318,27.34 160,37.562C175.37,70.325 174.222,104.268 153.28,119.969C132.445,135.586 99.225,127.934 72.156,104.279C55.91,123.731 42.82,145.639 33.281,169.905C67.111,182.238 89.916,207.57 86.221,233.405C82.523,259.24 53.524,277.145 17.595,279.499C19.933,305.295 26.505,330.277 36.532,353.374C54.342,345.192 72.325,342.284 87.627,344.436C100.659,346.306 111.554,351.451 118.783,361.093C134.6,382.19 126.386,415.806 102.003,443.063C121.519,459.413 144.219,472.507 168.597,482.093C180.927,448.265 206.252,425.459 232.097,429.155C257.941,432.852 275.837,461.851 278.191,497.78C304.278,495.415 329.748,489.225 353.066,479C337.3,446.003 338.806,411.412 359.909,395.594C369.549,388.364 382.477,386.572 395.503,388.469C410.615,390.629 426.693,398.719 441.066,411.249C457.154,391.904 470.466,369.739 479.941,345.655C446.111,333.323 423.306,308.002 427.003,282.155C430.7,256.309 459.668,238.383 495.597,236.03C493.237,210.086 486.823,185.367 476.691,162.156C470,165.258 463.249,167.64 456.608,169.287C430.883,175.67 406.826,171.027 394.409,154.469C378.713,133.525 387.157,100.609 411.097,73.469C391.577,57.117 368.849,44.022 344.472,34.437C332.14,68.265 306.815,91.097 280.972,87.405C255.126,83.712 237.228,54.709 234.877,18.78L234.875,18.78ZM256.531,113.906C336.157,113.906 400.907,178.658 400.907,258.281C400.907,337.907 336.157,402.657 256.532,402.657C176.908,402.657 112.158,337.907 112.158,258.282C112.158,178.658 176.908,113.908 256.533,113.908L256.531,113.906Z" style="fill:rgb(17,176,255);fill-rule:nonzero;stroke:white;stroke-width:10px;stroke-linecap:butt;stroke-miterlimit:2;"/>
        </g>
        <g transform="matrix(0.833333,0,0,0.819672,23.6657,28.6311)">
            <ellipse cx="280" cy="278" rx="120" ry="122" style="fill:rgb(17,176,255);"/>
        </g>
    </g>
</svg>
