<?xml version='1.0' encoding='utf-8'?>
<svg xmlns="http://www.w3.org/2000/svg" viewBox="0 0 34.574 48.023"> <defs> <linearGradient id="b" x1="11.134" x2="17.996" y1="994.27" y2="1026.4" gradientUnits="userSpaceOnUse"> <stop stop-color="#fff" offset="0"/> <stop stop-color="#fff" stop-opacity="0" offset="1"/> </linearGradient> <linearGradient id="a" x2="0" y1="990.47" y2="1051.2" gradientUnits="userSpaceOnUse"> <stop stop-color="#57b7ec" offset="0"/> <stop stop-color="#066b9d" offset="1"/> </linearGradient> </defs> <g transform="translate(56.037 -964.1)"> <g transform="matrix(.79082 0 0 .79082 -58.187 180.92)"> <path d="m31.996 990.89c-0.44821-0.0369-1.0824 0.22102-1.9736 0.831-3.565 2.44-16.516 16.568-16.516 16.568-0.11297 0-0.20198 0.04-0.31162 0.052h-9.9829v24.826h10.295s0.83789 0.934 2.1478 2.3638c3.7939 4.1413 11.547 12.442 14.368 14.256 3.7949 2.44 3.0124-1.3514 3.0124-3.0124v-52.093c0-1.2459 0.3059-3.6805-1.0387-3.7914v3.3e-4z" fill="url(#a)" stroke="#0070a3" stroke-width="1.0002"/> <path d="m30.771 993.77c-0.4016-0.0329-0.96978 0.19805-1.7684 0.74458-3.1942 2.1862-15.138 15.355-15.138 15.355-0.10122 0-0.18097 0.037-0.27921 0.047h-8.9813v16.52c5.1158-0.7796 10.555-1.9812 16.148-3.5834 3.7183-1.0653 7.4094-2.428 10.78-3.7067l0.17007-21.979c0-1.1163 0.27408-3.2977-0.93071-3.3971v-2.2e-4z" fill="url(#b)"/> <path d="m37.312 1029.9c-4.8975 0-8.8438 4.2336-8.8438 9.3126s3.9463 9.2812 8.8438 9.2812 8.8125-4.2022 8.8125-9.2812-3.915-9.3126-8.8125-9.3126zm0 2.3126c3.5768 0 6.5312 3.0963 6.5312 7 0 1.3463-0.45635 2.5044-1.0625 3.5624l-9.5-8.9374c1.1234-0.968 2.4861-1.625 4.0312-1.625zm-5.4688 3.4062 9.4688 8.9688c-1.1183 0.9506-2.4702 1.5937-4 1.5937-3.5768 0-6.5312-3.065-6.5312-6.9687 0-1.3464 0.45635-2.5357 1.0625-3.5938z" fill="#fff" stroke="#0070a3" stroke-width=".63226"/> </g> </g> </svg>