<?xml version="1.0" encoding="UTF-8" standalone="no"?>
<!DOCTYPE svg PUBLIC "-//W3C//DTD SVG 1.1//EN" "http://www.w3.org/Graphics/SVG/1.1/DTD/svg11.dtd">
<svg width="50px" height="51px" version="1.1" xmlns="http://www.w3.org/2000/svg" xmlns:xlink="http://www.w3.org/1999/xlink" xml:space="preserve" xmlns:serif="http://www.serif.com/" style="fill-rule:evenodd;clip-rule:evenodd;">
    <g transform="matrix(1,0,0,1,57.037,-963.1)">
        <g transform="matrix(0.79082,0,0,0.79082,-58.187,180.92)">
            <path d="M31.996,990.89C31.548,990.853 30.914,991.111 30.022,991.721C26.457,994.161 13.506,1008.29 13.506,1008.29C13.393,1008.29 13.304,1008.33 13.195,1008.34L3.212,1008.34L3.212,1033.17L13.507,1033.17C13.507,1033.17 26.228,1047.35 30.023,1049.79C33.818,1052.23 33.035,1048.44 33.035,1046.78L33.035,994.682C33.035,993.436 33.341,991.001 31.997,990.89L31.997,990.891L31.996,990.89Z" style="fill:rgb(2,153,215);fill-rule:nonzero;stroke:rgb(0,112,163);stroke-width:1px;"/>
        </g>
        <g transform="matrix(0.79082,0,0,0.79082,-58.187,180.92)">
            <path d="M30.771,993.77C30.369,993.737 29.801,993.968 29.003,994.515C25.808,996.701 13.865,1009.87 13.865,1009.87C13.763,1009.87 13.684,1009.91 13.585,1009.92L4.604,1009.92L4.604,1026.44C9.72,1025.66 15.159,1024.45 20.752,1022.85C24.47,1021.79 28.161,1020.43 31.532,1019.15L31.702,997.167C31.702,996.051 31.976,993.87 30.771,993.77L30.771,993.77L30.771,993.77Z" style="fill:rgb(112,214,255);fill-rule:nonzero;"/>
        </g>
    </g>
</svg>
