<?xml version="1.0" encoding="UTF-8" standalone="no"?>
<!DOCTYPE svg PUBLIC "-//W3C//DTD SVG 1.1//EN" "http://www.w3.org/Graphics/SVG/1.1/DTD/svg11.dtd">
<svg width="50px" height="51px" version="1.1" xmlns="http://www.w3.org/2000/svg" xmlns:xlink="http://www.w3.org/1999/xlink" xml:space="preserve" xmlns:serif="http://www.serif.com/" style="fill-rule:evenodd;clip-rule:evenodd;">
    <g transform="matrix(1,0,0,1,57.037,-963.1)">
        <g transform="matrix(0.79082,0,0,0.79082,-58.187,180.92)">
            <path d="M31.996,990.89C31.548,990.853 30.914,991.111 30.022,991.721C26.457,994.161 13.506,1008.29 13.506,1008.29C13.393,1008.29 13.304,1008.33 13.195,1008.34L3.212,1008.34L3.212,1033.17L13.507,1033.17C13.507,1033.17 26.228,1047.35 30.023,1049.79C33.818,1052.23 33.035,1048.44 33.035,1046.78L33.035,994.682C33.035,993.436 33.341,991.001 31.997,990.89L31.997,990.891L31.996,990.89Z" style="fill:rgb(2,153,215);fill-rule:nonzero;stroke:rgb(0,112,163);stroke-width:1px;"/>
        </g>
        <g transform="matrix(0.79082,0,0,0.79082,-58.187,180.92)">
            <path d="M30.771,993.77C30.369,993.737 29.801,993.968 29.003,994.515C25.808,996.701 13.865,1009.87 13.865,1009.87C13.763,1009.87 13.684,1009.91 13.585,1009.92L4.604,1009.92L4.604,1026.44C9.72,1025.66 15.159,1024.45 20.752,1022.85C24.47,1021.79 28.161,1020.43 31.532,1019.15L31.702,997.167C31.702,996.051 31.976,993.87 30.771,993.77L30.771,993.77L30.771,993.77Z" style="fill:rgb(112,214,255);fill-rule:nonzero;"/>
        </g>
        <g transform="matrix(0.79082,0,0,0.79082,-58.187,180.92)">
            <path d="M38.23,1004.9L35.718,1007.25C35.718,1007.25 41.625,1011.41 41.625,1020.47C41.625,1029.53 35.75,1033.41 35.75,1033.41L38.199,1036.03C38.199,1036.03 45.312,1030.28 45.312,1020.47C45.312,1010.66 38.23,1004.9 38.23,1004.9L38.23,1004.9Z" style="fill:url(#_Linear1);fill-rule:nonzero;stroke:rgb(0,112,163);stroke-width:0.5px;stroke-linejoin:round;"/>
        </g>
        <g transform="matrix(0.79082,0,0,0.79082,-58.2963,181.014)">
            <path d="M45.602,999.02L43.187,1001.13C43.187,1001.13 44.789,1002.63 46.437,1005.85C48.085,1009.06 49.75,1013.94 49.75,1020.6C49.75,1027.25 48.081,1032 46.437,1035.1C44.794,1038.19 43.219,1039.56 43.219,1039.56L45.465,1041.67C45.465,1041.67 48.177,1039.22 49.937,1035.91C51.697,1032.59 53.437,1027.53 53.437,1020.6C53.437,1013.66 51.693,1008.49 49.937,1005.06C48.182,1001.64 45.602,999.021 45.602,999.021L45.602,999.02Z" style="fill:rgb(89,192,249);fill-rule:nonzero;stroke:rgb(0,112,163);stroke-width:1px;stroke-linejoin:round;"/>
        </g>
        <g transform="matrix(0.79082,0,0,0.79082,-58.187,180.92)">
            <path d="M38.23,1004.9L35.718,1007.25C35.718,1007.25 41.625,1011.41 41.625,1020.47C41.625,1029.53 35.75,1033.41 35.75,1033.41L38.199,1036.03C38.199,1036.03 45.312,1030.28 45.312,1020.47C45.312,1010.66 38.23,1004.9 38.23,1004.9L38.23,1004.9Z" style="fill:rgb(79,188,248);fill-rule:nonzero;stroke:rgb(0,112,163);stroke-width:1px;stroke-linejoin:round;"/>
        </g>
    </g>
    <defs>
        <linearGradient id="_Linear1" x1="0" y1="0" x2="1" y2="0" gradientUnits="userSpaceOnUse" gradientTransform="matrix(3.63536e-15,59.37,-59.37,3.63536e-15,0,991.03)"><stop offset="0" style="stop-color:rgb(87,183,236);stop-opacity:1"/><stop offset="1" style="stop-color:rgb(6,107,157);stop-opacity:1"/></linearGradient>
    </defs>
</svg>
